<?xml version="1.0" standalone="no"?>
<!DOCTYPE svg PUBLIC "-//W3C//DTD SVG 20010904//EN"
 "http://www.w3.org/TR/2001/REC-SVG-20010904/DTD/svg10.dtd">
<svg version="1.0" xmlns="http://www.w3.org/2000/svg"
 width="530.000000pt" height="470.000000pt" viewBox="0 0 530.000000 470.000000"
 preserveAspectRatio="xMidYMid meet">

<g transform="translate(0.000000,470.000000) scale(0.100000,-0.100000)"
fill="#000000" stroke="none">
<path d="M834 3793 c7 -42 43 -354 81 -708 14 -126 34 -304 45 -395 11 -91 33
-291 50 -445 18 -154 50 -449 73 -655 l42 -375 277 -3 276 -2 6 37 c3 21 15
128 26 238 11 110 34 319 50 465 16 146 32 297 35 335 11 116 35 308 39 312 6
6 15 -53 30 -212 9 -82 29 -276 46 -430 17 -154 39 -365 50 -470 11 -104 23
-209 26 -232 l5 -43 269 0 269 0 5 53 c4 28 20 174 36 322 17 149 46 410 65
580 19 171 39 353 45 405 5 52 39 353 74 669 36 316 63 578 60 583 -3 4 -81 8
-174 8 l-169 0 -5 -42 c-3 -24 -8 -70 -11 -103 -3 -33 -17 -168 -30 -300 -14
-132 -32 -305 -40 -385 -26 -260 -55 -541 -75 -720 -11 -96 -26 -249 -35 -340
-23 -240 -26 -237 -54 60 -12 124 -30 308 -41 410 -18 173 -44 438 -105 1085
-15 149 -28 285 -31 303 l-5 32 -192 -2 -192 -3 -7 -50 c-4 -27 -14 -131 -23
-230 -9 -99 -25 -265 -35 -370 -11 -104 -28 -291 -40 -415 -11 -124 -27 -288
-35 -365 -8 -77 -24 -241 -35 -365 -21 -222 -26 -257 -35 -248 -3 2 -18 139
-35 304 -16 164 -32 313 -35 329 -4 27 -26 229 -71 660 -8 83 -30 285 -47 450
l-32 300 -198 3 -199 2 6 -37z"/>
<path d="M2927 3823 c-4 -3 -7 -87 -7 -185 l0 -178 215 0 215 0 2 -1122 3
-1123 207 -3 208 -2 2 542 3 543 265 5 265 5 -1 175 0 175 -265 5 -264 5 -3
398 -2 397 340 0 340 0 0 185 0 185 -758 0 c-417 0 -762 -3 -765 -7z"/>
</g>
</svg>
